<?xml version="1.0" encoding="utf-8"?>
<!-- Generator: Adobe Illustrator 18.0.0, SVG Export Plug-In . SVG Version: 6.00 Build 0)  -->
<!DOCTYPE svg PUBLIC "-//W3C//DTD SVG 1.1//EN" "http://www.w3.org/Graphics/SVG/1.1/DTD/svg11.dtd">
<svg version="1.1" id="Layer_1" xmlns="http://www.w3.org/2000/svg" xmlns:xlink="http://www.w3.org/1999/xlink" x="0px" y="0px"
	 viewBox="0 0 542.3 112.7" enable-background="new 0 0 542.3 112.7" xml:space="preserve">
<g>
	<path fill="#FFFFFF" d="M63.6,14.3c0,3-0.6,6-1.8,9c-1.2,3.1-2.8,6.1-4.8,9c-2,3-4.3,5.8-6.8,8.6c-2.5,2.7-5.1,5.3-7.8,7.6
		c-2.6,2.3-5.3,4.3-7.9,6c-2.6,1.7-4.9,3-7,4c0.1,0.1,0.2,0.3,0.3,0.4c0.4,0.4,0.8,0.5,1.4,0.5c1.2,0,2.7-0.1,4.7-0.3
		c1.9-0.2,3.8-0.3,5.6-0.3c0.8,0,1.6,0.2,2.2,0.5c0.6,0.4,1.1,0.8,1.5,1.3c0.4,0.5,0.7,1.1,0.9,1.7c0.2,0.6,0.3,1.2,0.3,1.7
		c0,1-0.2,1.9-0.6,2.7c-0.4,0.8-1.1,1.3-2.1,1.3c-1.3,0-2.5,0-3.4-0.1c-1,0-1.9-0.1-2.9-0.1s-2.1,0-3.3-0.1c-1.2,0-2.8-0.1-4.6-0.1
		c-1.1,0-2.2,0-3.2,0.1c-1,0-1.9,0.1-2.9,0.2C20.4,75,19.6,81.4,19,87.4c-0.6,6-0.8,10.8-0.8,14.5c0,1.1,0.1,1.9,0.4,2.5
		c0.2,0.6,0.5,1.2,0.8,1.6c0.3,0.4,0.5,0.8,0.8,1.1c0.2,0.3,0.4,0.6,0.4,1c0,0.3-0.1,0.6-0.3,1.1c-0.3,0.5-0.9,1-1.8,1.4
		c-0.9,0.5-1.9,0.8-3.1,1.2c-1.1,0.3-2.3,0.6-3.4,0.7s-2.1,0.3-2.9,0.3c-1,0-1.8-0.5-2.4-1.4c-0.6-1-1.1-2.2-1.4-3.6
		c-0.4-1.4-0.6-3-0.7-4.7c-0.1-1.7-0.2-3.3-0.2-4.8c0-3.7,0.2-8.1,0.5-13C5.2,80.3,5.8,75,6.7,69.3c-1.5-0.1-2.8-0.2-3.9-0.5
		c-1.1-0.2-1.8-0.7-2.3-1.4C0.2,66.9,0,66.3,0,65.6c0-0.8,0.3-1.6,0.8-2.3c0.5-0.7,1.2-1.4,2-2c0.8-0.6,1.7-1.1,2.5-1.5
		c0.9-0.4,1.6-0.7,2.3-0.8c0.1,0,0.4-0.1,0.8-0.2c1.4-7,3.3-13.8,5.6-20.6c2.3-6.8,5.3-12.8,8.8-18.2c3.6-5.4,7.8-9.7,12.7-13
		s10.7-5,17.2-5c3.5,0,6.1,1.1,8,3.3C62.7,7.7,63.6,10.6,63.6,14.3z M46.6,15.8c0-1.2-0.3-2.2-0.9-3c-0.6-0.8-1.7-1.3-3.3-1.4
		c-1.8,0-3.6,1.1-5.3,3.3c-1.7,2.2-3.3,5.1-4.8,8.8c-1.5,3.7-2.9,7.9-4.3,12.7c-1.3,4.8-2.5,9.8-3.6,15.1c3.5-2.5,6.7-5.2,9.4-8.2
		c2.7-3,5.1-6.1,7-9.4c1.9-3.2,3.3-6.4,4.3-9.5C46.1,21.1,46.6,18.3,46.6,15.8z"/>
	<path fill="#FFFFFF" d="M90.1,50c0,1.9-0.8,4-2.4,6.2c-1.6,2.2-3.7,4.3-6.3,6.3c-2.6,2-5.7,3.8-9.3,5.3c-3.5,1.5-7.2,2.5-11,3
		c0.1,0.5,0.5,0.9,1.2,1.3c0.6,0.4,1.5,0.7,2.7,0.9c1.3,0.2,3,0.4,5.3,0.4c1.9,0,3.5-0.2,4.9-0.7c1.3-0.5,2.5-1,3.6-1.6
		c1.1-0.6,2-1.1,2.9-1.6c0.8-0.5,1.8-0.7,2.7-0.7c2.2,0,3.3,0.9,3.3,2.6c0,1.8-0.7,3.4-2.1,4.9c-1.4,1.5-3.3,2.9-5.5,4
		c-2.3,1.1-4.9,2-7.8,2.7c-2.9,0.6-5.8,1-8.7,1c-3.5,0-6.4-0.4-8.9-1.1c-2.5-0.7-4.5-1.7-6.1-3c-1.6-1.3-2.7-2.7-3.5-4.4
		c-0.7-1.7-1.1-3.5-1.1-5.4c0-3,0.8-6,2.5-9.3c1.7-3.2,3.9-6.1,6.9-8.8c2.9-2.6,6.4-4.8,10.4-6.5c4-1.7,8.4-2.5,13.1-2.5
		c4.8,0,8.2,0.7,10.3,2C89,46.3,90.1,47.9,90.1,50z M75.1,52.6c0-0.6-0.3-1.1-0.9-1.3c-0.6-0.2-1.3-0.3-2.1-0.3
		c-1.1,0-2.3,0.3-3.8,1c-1.5,0.6-2.9,1.5-4.2,2.5c-1.3,1-2.5,2.2-3.4,3.4c-1,1.2-1.4,2.5-1.4,3.8c0,0.7,0.4,1.1,1.1,1.1
		c1.3,0,2.8-0.4,4.5-1.1c1.7-0.7,3.3-1.5,4.9-2.5c1.5-1,2.8-2.1,3.9-3.3C74.5,54.6,75.1,53.6,75.1,52.6z"/>
	<path fill="#FFFFFF" d="M134.6,50c0,1.9-0.8,4-2.4,6.2c-1.6,2.2-3.7,4.3-6.3,6.3c-2.6,2-5.7,3.8-9.3,5.3c-3.5,1.5-7.2,2.5-11,3
		c0.1,0.5,0.5,0.9,1.2,1.3c0.6,0.4,1.5,0.7,2.7,0.9c1.3,0.2,3,0.4,5.3,0.4c1.9,0,3.5-0.2,4.9-0.7c1.3-0.5,2.5-1,3.6-1.6
		c1.1-0.6,2-1.1,2.9-1.6c0.8-0.5,1.8-0.7,2.7-0.7c2.2,0,3.3,0.9,3.3,2.6c0,1.8-0.7,3.4-2.1,4.9c-1.4,1.5-3.3,2.9-5.5,4
		c-2.3,1.1-4.9,2-7.8,2.7c-2.9,0.6-5.8,1-8.7,1c-3.5,0-6.4-0.4-8.9-1.1c-2.5-0.7-4.5-1.7-6.1-3c-1.6-1.3-2.7-2.7-3.5-4.4
		c-0.7-1.7-1.1-3.5-1.1-5.4c0-3,0.8-6,2.5-9.3c1.7-3.2,3.9-6.1,6.9-8.8c2.9-2.6,6.4-4.8,10.4-6.5c4-1.7,8.4-2.5,13.1-2.5
		c4.8,0,8.2,0.7,10.3,2C133.5,46.3,134.6,47.9,134.6,50z M119.6,52.6c0-0.6-0.3-1.1-0.9-1.3c-0.6-0.2-1.3-0.3-2.1-0.3
		c-1.1,0-2.3,0.3-3.8,1c-1.5,0.6-2.9,1.5-4.2,2.5c-1.3,1-2.5,2.2-3.4,3.4c-1,1.2-1.4,2.5-1.4,3.8c0,0.7,0.4,1.1,1.1,1.1
		c1.3,0,2.8-0.4,4.5-1.1c1.7-0.7,3.3-1.5,4.9-2.5c1.5-1,2.8-2.1,3.9-3.3C119,54.6,119.6,53.6,119.6,52.6z"/>
	<path fill="#FFFFFF" d="M177.7,60c0,2.7-0.5,5.4-1.5,8.1c-1,2.7-2.5,5.1-4.6,7.3c-2.1,2.1-4.8,3.9-8,5.3c-3.2,1.4-7.2,2.1-11.7,2.1
		c-2.1,0-4-0.2-5.5-0.7c-1.6-0.5-2.9-1-3.9-1.7s-1.8-1.5-2.3-2.3c-0.5-0.8-0.7-1.7-0.7-2.4c0-0.8,0.3-1.8,0.8-2.9
		c0.5-1.1,1.2-2.1,2-3.2s1.7-1.9,2.6-2.5c1-0.7,1.9-1,2.9-1c0.7,0,1.3,0.3,1.7,0.8c0.5,0.5,1,1.1,1.6,1.7c0.6,0.6,1.4,1.2,2.3,1.7
		c1,0.5,2.3,0.8,4,0.8c3.2,0,5.5-0.8,7-2.5c1.5-1.7,2.3-3.5,2.3-5.5c0-2-0.7-3.8-2.1-5.4c-1.4-1.6-3.5-2.4-6.2-2.4
		c-0.4,0-1.1,0.3-2.3,0.8c-1.2,0.5-2.5,1.2-4,2.1c-1.5,0.8-3.1,1.7-4.8,2.6c-1.7,0.9-3.2,1.8-4.7,2.6c-1.4,0.8-2.7,1.5-3.6,2.1
		c-1,0.5-1.6,0.8-1.8,0.8c-0.6,0-1.2-0.2-1.7-0.6c-0.5-0.4-0.9-0.9-1.3-1.4c-0.4-0.6-0.7-1.1-0.8-1.7c-0.2-0.6-0.3-1-0.3-1.4
		c0-0.8,0.6-1.9,1.8-3.1c1.2-1.2,2.7-2.4,4.6-3.7c1.9-1.3,4-2.6,6.3-3.9c2.3-1.3,4.6-2.5,6.9-3.5c2.3-1,4.4-1.8,6.3-2.5
		c1.9-0.7,3.5-1,4.6-1c2.3,0,4.3,0.5,6.1,1.4c1.8,0.9,3.3,2.2,4.5,3.7c1.2,1.6,2.1,3.4,2.7,5.4S177.7,57.8,177.7,60z"/>
	<path fill="#FFFFFF" d="M225.8,71.9c0,1.6-0.7,3.1-2.1,4.5c-1.4,1.4-3.3,2.6-5.6,3.5c-2.3,1-5,1.8-7.9,2.3
		c-2.9,0.6-5.9,0.8-8.9,0.8c-4.2,0-7.8-0.4-10.8-1.1c-3-0.7-5.4-1.7-7.3-3c-1.9-1.2-3.3-2.7-4.2-4.3c-0.9-1.7-1.3-3.4-1.3-5.3
		c0-2.8,0.9-5.7,2.7-8.7c1.8-3,4.2-5.7,7.3-8.2c3.1-2.5,6.7-4.5,10.8-6.1c4.1-1.6,8.5-2.4,13.3-2.4c3.7,0,6.3,0.8,7.8,2.3
		s2.2,3.3,2.2,5.2c0,1.1-0.2,2-0.7,3c-0.5,0.9-1,1.7-1.7,2.4c-0.7,0.7-1.5,1.2-2.3,1.6c-0.8,0.4-1.5,0.6-2.2,0.6
		c-0.7,0-1.3-0.2-1.8-0.6c-0.5-0.4-1.1-0.9-1.6-1.3c-0.5-0.5-1.1-0.9-1.7-1.3c-0.6-0.4-1.3-0.6-2.1-0.6c-2.3,0-4.6,0.4-6.8,1.3
		c-2.2,0.8-4.1,1.9-5.8,3.2c-1.7,1.3-3,2.7-4,4.2c-1,1.5-1.5,2.9-1.5,4.3c0,1.5,0.7,2.7,2.1,3.8c1.4,1,3.8,1.5,7.1,1.5
		c4,0,7.3-0.3,9.7-0.8c2.5-0.6,4.5-1.2,6.1-1.8c1.6-0.7,3-1.3,4.1-1.8c1.1-0.6,2.4-0.8,3.7-0.8c1.2,0,2,0.4,2.5,1.3
		C225.5,70,225.8,70.9,225.8,71.9z"/>
	<path fill="#FFFFFF" d="M292.5,73.6c0,1.3-0.8,2.7-2.5,4c-1.7,1.3-3.6,2.5-5.9,3.5c-2.3,1-4.7,1.8-7.1,2.4
		c-2.5,0.6-4.5,0.9-6.1,0.9c-2.5,0-4.7-0.6-6.6-1.8c-1.9-1.2-2.9-3.1-2.9-5.6c0-1.1,0.1-2.2,0.4-3.2s0.6-2,0.9-2.8
		c0.3-0.8,0.6-1.6,0.8-2.2c0.2-0.6,0.4-1.2,0.4-1.6c0-0.6-0.4-0.8-1.2-0.8c-1.6,0-3.2,0.5-5,1.6c-1.8,1.1-3.5,2.4-5.1,3.9
		c-1.6,1.5-3,2.9-4.1,4.3c-1.2,1.4-1.9,2.4-2.3,3.1c-0.2,0.4-0.4,0.8-0.7,1.4c-0.2,0.6-0.6,1.1-1.1,1.6c-0.5,0.5-1.1,1-1.8,1.4
		c-0.7,0.4-1.7,0.6-3,0.6c-2.7,0-4.7-0.6-5.8-1.7c-1.1-1.2-1.7-2.6-1.7-4.3c0-3.1,0.1-6.4,0.4-10s0.7-7.3,1.2-11.1
		c-0.4,0.1-0.7,0.1-1,0.1c-0.3,0-0.6,0-1,0c-2.3-0.1-4.3-0.3-6.1-0.6c-1.5-0.4-3-0.8-4.3-1.4c-1.3-0.6-2-1.4-2-2.5
		c0-0.7,0.2-1.4,0.5-2c0.4-0.6,0.8-0.9,1.4-0.9c2.5,0,4.9-0.2,7.2-0.5c2.4-0.4,4.7-0.8,6.9-1.4c1.3-6,3-11.9,5.2-17.6
		c2.2-5.7,4.9-10.9,8-15.3c3.2-4.5,6.9-8.1,11.2-10.8C264.2,1.4,269,0,274.5,0c3.7,0,6.7,0.9,9.1,2.6s3.6,4,3.6,6.8
		c0,4.2-1.2,8.5-3.7,12.8c-2.5,4.3-5.6,8.5-9.5,12.4c-3.9,3.9-8.2,7.5-12.9,10.7c-4.7,3.2-9.4,5.8-14,7.9c-0.4,2.1-0.6,3.9-0.8,5.4
		c-0.2,1.5-0.3,2.6-0.3,3.1c0,0.6,0.1,0.8,0.4,0.8c0.1,0,0.2-0.1,0.5-0.2c1.2-1,2.8-2.1,4.8-3.5c2-1.3,4.2-2.6,6.5-3.8
		s4.7-2.2,7-3.1c2.4-0.9,4.5-1.3,6.4-1.3c1.6,0,3,0.3,4.3,1c1.2,0.6,1.8,1.8,1.8,3.6c0,0.5-0.1,1.3-0.4,2.4
		c-0.2,1.1-0.5,2.3-0.8,3.6c-0.3,1.3-0.6,2.5-0.8,3.8c-0.2,1.3-0.4,2.3-0.4,3.2c0,1.6,0.4,2.6,1.1,2.9c0.7,0.3,1.4,0.5,2.1,0.5
		c0.5,0,1.1,0,2-0.1c0.8,0,1.7-0.1,2.5-0.2c0.9-0.1,1.7-0.2,2.5-0.3c0.8-0.1,1.4-0.2,1.8-0.4c0.4-0.1,0.7-0.2,1.1-0.3
		c0.4-0.1,0.7-0.1,1.1-0.1c0.6,0,1.3,0.3,2,0.9C292.2,71.8,292.5,72.6,292.5,73.6z M271.4,14.1c0-1.4-0.5-2.4-1.4-2.9
		c-1-0.5-2.1-0.7-3.4-0.7c-2,0-3.8,1-5.6,2.9c-1.7,1.9-3.3,4.4-4.8,7.3c-1.4,3-2.7,6.4-3.9,10.1s-2.1,7.4-3,11
		c3.4-2,6.4-4.3,9.1-6.7c2.7-2.4,5-4.9,6.9-7.4s3.4-4.9,4.4-7.3C270.8,18,271.4,15.9,271.4,14.1z"/>
	<path fill="#FFFFFF" d="M359.9,73.2c0,0.8-0.5,1.8-1.4,2.9c-0.9,1.1-2.1,2.1-3.5,3c-1.4,0.9-2.9,1.7-4.5,2.3c-1.6,0.6-3.2,1-4.7,1
		c-1.5,0-2.6-0.3-3.5-0.8c-0.8-0.6-1.5-1.3-1.8-2.2c-0.4-0.9-0.6-2-0.7-3.2c-0.1-1.2-0.2-2.5-0.2-3.8c0-1.4-0.6-2.1-1.8-2.1
		c-1.8,0-3.5,0.7-5.1,2c-1.6,1.3-3,2.8-4.4,4.4c-1.4,1.6-2.7,3.1-4,4.4s-2.6,2-3.9,2c-1.2,0-2.2-0.2-2.9-0.7
		c-0.7-0.5-1.1-1.1-1.1-1.8c0.1-1.7,0.1-3.2,0.2-4.5c0.1-1.3,0.1-2.4,0.1-3.4c0-0.4-0.1-0.8-0.4-1.1c-0.3-0.3-0.8-0.4-1.6-0.4
		c-1.6,0-3,0.6-4.3,1.7c-1.2,1.1-2.4,2.4-3.6,3.7c-1.2,1.3-2.5,2.6-3.9,3.7c-1.4,1.1-3,1.7-4.8,1.7c-1.2,0-2.4-0.3-3.5-1
		c-1.2-0.7-1.7-1.5-1.7-2.5c0-0.6,0.2-1.3,0.6-2.2c0.4-0.9,0.8-2,1.3-3.3c0.5-1.3,0.9-2.8,1.3-4.4c0.4-1.6,0.6-3.4,0.6-5.3
		c0-1.4-0.2-2.4-0.6-2.9c-0.4-0.5-1-0.7-1.6-0.7l-5.4,1.2c-1.1,0-1.9-0.3-2.4-1c-0.5-0.7-0.8-1.5-0.8-2.5c0-1.1,0.3-2.2,0.9-3.4
		c0.6-1.2,1.6-2.4,2.9-3.5c1.3-1.1,3-2,5-2.7c2-0.7,4.4-1.1,7.2-1.1c1.6,0,2.9,0.1,3.8,0.4c0.9,0.2,1.6,0.6,2.2,1
		c0.5,0.4,0.9,0.8,1,1.3c0.1,0.5,0.2,0.9,0.2,1.2c0,1.4-0.2,2.8-0.7,4.1c-0.5,1.3-0.7,2.4-0.7,3.2c0,0.8,0.4,1.2,1.2,1.2
		c0.6,0,1.4-0.3,2.3-0.8c0.9-0.5,1.9-1.1,3-1.7c1.1-0.6,2.2-1.2,3.4-1.7c1.2-0.5,2.3-0.8,3.4-0.8c2,0,3.2,0.5,3.8,1.5
		c0.5,1,0.8,2.1,0.8,3.3c0,0.6,0,1.3-0.1,1.8c-0.1,0.6-0.1,1.1-0.1,1.5c0,0.7,0.2,1.1,0.5,1.1c0.2,0,0.8-0.4,1.7-1.3
		c1-0.9,2.2-1.8,3.7-2.9c1.5-1,3.3-2,5.4-2.9c2.1-0.9,4.4-1.3,7-1.3c1.8,0,3.3,0.4,4.3,1.2c1.1,0.8,1.6,2.2,1.7,4.1
		c0.1,0.8,0,1.8-0.2,2.9c-0.2,1.1-0.3,2.2-0.3,3.3c0,1.5,0.3,2.8,0.9,4c0.6,1.2,1.8,1.7,3.6,1.7c0.6,0,1.2-0.1,2.1-0.3
		s1.5-0.3,2.2-0.3C359.3,71.1,359.9,71.8,359.9,73.2z"/>
	<path fill="#FFFFFF" d="M390.1,71.4c0,1.6-0.5,3.2-1.6,4.6c-1.1,1.4-2.5,2.7-4.2,3.8c-1.7,1.1-3.6,2-5.7,2.6s-4.2,1-6.2,1
		c-1.6,0-3.2-0.2-4.6-0.6c-1.5-0.4-2.8-1.1-4-2.1c-1.2-1-2.1-2.2-2.7-3.8s-0.9-3.4-0.8-5.6c0.1-2.6,0.4-5.2,0.9-7.8
		c0.5-2.6,1-4.9,1.5-7c0.6-2.1,1.1-3.8,1.6-5.1c0.5-1.3,0.9-2,1-2.1c0.6-0.3,1.3-0.6,2.3-1c1-0.4,2-0.7,3.2-1
		c1.1-0.3,2.2-0.6,3.2-0.7c1-0.2,1.7-0.3,2.2-0.3c0.8,0,1.3,0.2,1.7,0.6c0.4,0.4,0.5,0.8,0.5,1.3c0,0.4-0.2,1.3-0.7,2.5
		c-0.5,1.3-1,2.7-1.5,4.2c-0.6,1.6-1.1,3.1-1.5,4.8c-0.5,1.6-0.7,3-0.7,4c0,2,0.5,3.7,1.4,5.2c1,1.5,2.5,2.2,4.7,2.2
		c1.1,0,1.9-0.1,2.4-0.4c0.5-0.2,1-0.5,1.3-0.7c0.4-0.2,0.7-0.5,1.1-0.7c0.4-0.2,1-0.4,1.7-0.4c0.7,0,1.4,0.2,2.1,0.5
		C389.3,69.7,389.8,70.4,390.1,71.4z M383.6,23.6c0,0.6-0.1,1.6-0.4,3c-0.3,1.3-0.8,2.7-1.7,4c-0.8,1.3-2.1,2.6-3.6,3.6
		c-1.6,1.1-3.7,1.7-6.3,1.8c-0.7,0-1.3-0.1-1.9-0.3c-0.5-0.1-1-0.4-1.4-0.7c-0.4-0.4-0.6-0.8-0.6-1.4c0.1-0.5,0.2-1.2,0.5-2
		c0.2-0.8,0.5-1.8,0.9-2.8c0.4-1,0.7-2,1.1-3.1c0.4-1,0.8-1.9,1.2-2.7c0.6-1,1.3-1.7,2.3-2.1s2.1-0.6,3.3-0.6c0.6,0,1.2,0,2,0.1
		c0.8,0.1,1.5,0.2,2.2,0.4c0.7,0.2,1.3,0.5,1.7,1C383.4,22.3,383.6,22.9,383.6,23.6z"/>
	<path fill="#FFFFFF" d="M459,15.5c0,2-0.4,4.3-1.1,7.1c-0.7,2.7-1.6,5.6-2.6,8.7c-1.1,3-2.2,6.1-3.4,9.3c-1.2,3.1-2.4,6-3.5,8.7
		c-1.1,2.7-2.1,5-3,7c-0.8,2-1.4,3.4-1.6,4.3c-0.2,0.7-0.3,1.5-0.3,2.4c0,0.9,0.1,1.8,0.4,2.8c0.2,0.9,0.6,1.8,1.2,2.5
		c0.5,0.7,1.2,1.3,2.1,1.8c0.9,0.5,2,0.7,3.2,0.7c1.4,0,2.5-0.3,3.4-0.8c0.8-0.6,1.5-0.8,2.1-0.8c0.6,0,1.2,0.2,1.8,0.5
		c0.6,0.4,0.8,1.1,0.8,2.2c0,1.3-0.3,2.5-1,3.8c-0.6,1.2-1.5,2.4-2.7,3.4s-2.6,1.8-4.2,2.5c-1.6,0.7-3.4,1-5.4,1.1
		c-3,0.1-5.4-0.5-7.3-2.1c-1.9-1.5-3.3-3.5-4.3-6c-1.8,1.3-3.9,2.5-6.3,3.6c-2.4,1.1-4.9,2.1-7.6,3c-2.6,0.8-5.3,1.5-8.1,2.1
		c-2.7,0.5-5.4,0.8-7.8,0.8c-2,0-3.9-0.2-5.7-0.6c-1.8-0.4-3.3-1-4.6-1.9c-1.3-0.9-2.3-2-3.1-3.4c-0.7-1.4-1.1-3.1-1.1-5.1
		c0-2.8,1-5.9,3-9.1c2-3.3,4.5-6.3,7.7-9c3.2-2.8,6.7-5,10.7-6.8c3.9-1.8,7.9-2.7,11.7-2.7c2.3,0,4,0.5,5,1.5s1.5,2.1,1.5,3.4
		c0,1.6-0.6,3.1-1.7,4.5s-2.6,2.2-4.4,2.5c-2.9,0.1-5.5,0.5-8,1.4c-2.4,0.9-4.5,2-6.3,3.3c-1.8,1.3-3.2,2.7-4.2,4.2
		c-1,1.5-1.5,2.8-1.5,4.1c0,1.1,0.5,2,1.4,2.7c0.9,0.7,2.4,1.1,4.4,1.1c2.4,0,4.7-0.4,6.9-1.2c2.2-0.8,4.3-1.8,6.3-2.9
		c2-1.2,3.8-2.5,5.4-3.9c1.6-1.4,3.1-2.8,4.3-4.1v-1.4c0-4.9,0.4-10,1.3-15.3c0.9-5.2,1.8-10.1,2.9-14.5c1.3-5.1,2.6-10.2,4.1-15.2
		c1.6-3.4,3.5-6,5.6-7.9s4.3-2.9,6.6-2.9c1.6,0,2.8,0.3,3.8,0.9c1,0.6,1.7,1.4,2.2,2.4c0.5,1,0.8,2.2,1,3.5
		C458.9,12.8,459,14.1,459,15.5z"/>
	<path fill="#FFFFFF" d="M503.7,49.6c0,1.1-0.2,2.1-0.6,2.8c-0.4,0.7-1.4,1.1-2.9,1.1h-6.7c-3.9,0-7,0.1-9.5,0.3
		c-2.4,0.2-4.5,0.5-6.3,0.9c-0.2,1.2-0.4,2.4-0.4,3.7c-0.1,1.2-0.1,2.5-0.1,3.8c0,2.9,0.6,5.3,1.7,7.2c1.1,1.9,2.6,2.9,4.4,2.9
		c1.3,0,2.5-0.2,3.5-0.6c1-0.4,1.9-0.9,2.7-1.4c0.8-0.5,1.6-1,2.3-1.4c0.7-0.4,1.5-0.6,2.3-0.6c0.8,0,1.5,0.4,2.1,1.1
		c0.6,0.7,0.9,1.5,0.9,2.3c0,1.5-0.5,3-1.4,4.4c-0.9,1.4-2.1,2.6-3.6,3.6s-3.2,1.9-5.1,2.5c-1.9,0.6-3.9,0.9-5.9,0.9
		c-2.1,0-4.2-0.4-6.2-1.1c-2-0.7-3.8-2-5.4-3.7s-2.8-3.9-3.8-6.6c-1-2.7-1.5-6-1.5-9.9c0-0.7,0-1.4,0-2.1c0-0.7,0-1.4,0.1-2.1
		c-0.2,0.1-0.5,0.1-0.8,0.1c-0.6,0.1-1.2,0.2-2,0.3c-0.8,0.1-1.6,0.2-2.3,0.2c-1.3,0-2.3-0.3-3-0.8c-0.7-0.5-1-1.4-1-2.7
		c0-1.4,0.4-2.8,1.1-4.3c0.7-1.4,1.7-2.4,2.9-2.8c0.6-0.2,1.6-0.5,2.7-0.7c1.2-0.3,2.6-0.6,4.1-0.8c1-4.7,2.3-9.2,3.8-13.5
		c1.6-4.3,3.3-8.1,5-11.4c1.8-3.3,3.6-5.9,5.3-7.8c1.8-1.9,3.3-2.9,4.7-2.9c1.7,0,2.9,0.6,3.8,1.7c0.8,1.1,1.2,2.5,1.2,4.1
		c0,1.8-0.3,3.7-1,5.7c-0.6,2-1.4,4.2-2.4,6.5c-1,2.3-2,4.7-3.1,7.2c-1.1,2.5-2.2,5.3-3.1,8.1c2-0.2,4-0.4,6-0.5
		c1.9-0.1,3.7-0.2,5.3-0.2c1.5,0,2.9,0.1,4.3,0.3c1.4,0.2,2.7,0.5,3.9,1s2.1,1.2,2.8,2.1C503.4,47.1,503.7,48.2,503.7,49.6z"/>
	<path fill="#FFFFFF" d="M542.3,60c0,2.7-0.5,5.4-1.5,8.1c-1,2.7-2.5,5.1-4.6,7.3s-4.8,3.9-8,5.3c-3.2,1.4-7.2,2.1-11.7,2.1
		c-2.1,0-4-0.2-5.5-0.7c-1.6-0.5-2.9-1-3.9-1.7c-1-0.7-1.8-1.5-2.3-2.3c-0.5-0.8-0.7-1.7-0.7-2.4c0-0.8,0.3-1.8,0.8-2.9
		c0.5-1.1,1.2-2.1,2-3.2c0.8-1,1.7-1.9,2.6-2.5c1-0.7,1.9-1,2.9-1c0.7,0,1.3,0.3,1.7,0.8c0.5,0.5,1,1.1,1.6,1.7
		c0.6,0.6,1.4,1.2,2.3,1.7c1,0.5,2.3,0.8,4,0.8c3.2,0,5.5-0.8,7-2.5c1.5-1.7,2.3-3.5,2.3-5.5c0-2-0.7-3.8-2.1-5.4
		c-1.4-1.6-3.5-2.4-6.2-2.4c-0.4,0-1.1,0.3-2.3,0.8c-1.2,0.5-2.5,1.2-4,2.1c-1.5,0.8-3.1,1.7-4.8,2.6c-1.7,0.9-3.2,1.8-4.7,2.6
		c-1.4,0.8-2.7,1.5-3.6,2.1c-1,0.5-1.6,0.8-1.8,0.8c-0.6,0-1.2-0.2-1.7-0.6c-0.5-0.4-0.9-0.9-1.3-1.4c-0.4-0.6-0.7-1.1-0.8-1.7
		c-0.2-0.6-0.3-1-0.3-1.4c0-0.8,0.6-1.9,1.8-3.1c1.2-1.2,2.7-2.4,4.6-3.7c1.9-1.3,4-2.6,6.3-3.9c2.3-1.3,4.6-2.5,6.9-3.5
		c2.3-1,4.4-1.8,6.3-2.5c1.9-0.7,3.5-1,4.6-1c2.3,0,4.3,0.5,6.1,1.4c1.8,0.9,3.3,2.2,4.5,3.7c1.2,1.6,2.1,3.4,2.7,5.4
		S542.3,57.8,542.3,60z"/>
</g>
</svg>
